<mxfile host="Electron" modified="2024-12-20T16:26:30.150Z" agent="Mozilla/5.0 (Windows NT 10.0; Win64; x64) AppleWebKit/537.36 (KHTML, like Gecko) draw.io/24.4.8 Chrome/124.0.6367.207 Electron/30.0.6 Safari/537.36" etag="BqlF5MdtmvqvP11i_3_e" version="24.4.8" type="device">
  <diagram name="Страница — 1" id="MN3oTvpCHbtvd1io7XfB">
    <mxGraphModel dx="298" dy="475" grid="0" gridSize="10" guides="1" tooltips="1" connect="1" arrows="1" fold="1" page="0" pageScale="1" pageWidth="1169" pageHeight="827" math="0" shadow="0">
      <root>
        <mxCell id="0" />
        <mxCell id="1" parent="0" />
        <mxCell id="gUwf0hyolpHAvtYDquf2-1" style="edgeStyle=orthogonalEdgeStyle;rounded=0;orthogonalLoop=1;jettySize=auto;html=1;endArrow=open;endFill=0;strokeWidth=1;entryX=0;entryY=0.5;entryDx=0;entryDy=0;" edge="1" parent="1" source="gUwf0hyolpHAvtYDquf2-2" target="gUwf0hyolpHAvtYDquf2-3">
          <mxGeometry relative="1" as="geometry">
            <mxPoint x="535.03" y="390" as="targetPoint" />
            <mxPoint x="535.03" y="344" as="sourcePoint" />
            <Array as="points">
              <mxPoint x="542" y="335" />
              <mxPoint x="542" y="335" />
            </Array>
          </mxGeometry>
        </mxCell>
        <mxCell id="gUwf0hyolpHAvtYDquf2-2" value="" style="shape=waypoint;sketch=0;fillStyle=solid;size=6;pointerEvents=1;points=[];fillColor=none;resizable=0;rotatable=0;perimeter=centerPerimeter;snapToPoint=1;strokeWidth=8;" vertex="1" parent="1">
          <mxGeometry x="461" y="325" width="20" height="20" as="geometry" />
        </mxCell>
        <mxCell id="gUwf0hyolpHAvtYDquf2-3" value="Переход в режим редактирования" style="rounded=1;whiteSpace=wrap;html=1;" vertex="1" parent="1">
          <mxGeometry x="621" y="305" width="120" height="60" as="geometry" />
        </mxCell>
        <mxCell id="gUwf0hyolpHAvtYDquf2-5" value="Нажатие на кнопку «редактировать»" style="text;align=center;verticalAlign=middle;rounded=0;glass=0;shadow=0;whiteSpace=wrap;fontColor=default;html=1;spacingTop=9;spacing=6;" vertex="1" parent="1">
          <mxGeometry x="478" y="295" width="143" height="37" as="geometry" />
        </mxCell>
        <mxCell id="gUwf0hyolpHAvtYDquf2-6" style="edgeStyle=orthogonalEdgeStyle;rounded=0;orthogonalLoop=1;jettySize=auto;html=1;endArrow=open;endFill=0;strokeWidth=1;entryX=0;entryY=0.5;entryDx=0;entryDy=0;" edge="1" parent="1">
          <mxGeometry relative="1" as="geometry">
            <mxPoint x="891" y="334.71" as="targetPoint" />
            <mxPoint x="741" y="334.71" as="sourcePoint" />
            <Array as="points">
              <mxPoint x="812" y="334.71" />
              <mxPoint x="812" y="334.71" />
            </Array>
          </mxGeometry>
        </mxCell>
        <mxCell id="gUwf0hyolpHAvtYDquf2-7" value="Создание изменений в выбранном блоке&amp;nbsp;" style="text;align=center;verticalAlign=middle;rounded=0;glass=0;shadow=0;whiteSpace=wrap;fontColor=default;html=1;spacingTop=9;spacing=6;" vertex="1" parent="1">
          <mxGeometry x="744" y="295" width="143" height="37" as="geometry" />
        </mxCell>
        <mxCell id="gUwf0hyolpHAvtYDquf2-8" value="Отображение изменений" style="rounded=1;whiteSpace=wrap;html=1;" vertex="1" parent="1">
          <mxGeometry x="890" y="305" width="120" height="60" as="geometry" />
        </mxCell>
        <mxCell id="gUwf0hyolpHAvtYDquf2-9" style="rounded=0;orthogonalLoop=1;jettySize=auto;html=1;endArrow=open;endFill=0;strokeWidth=1;exitX=0.5;exitY=1;exitDx=0;exitDy=0;entryX=0.5;entryY=0;entryDx=0;entryDy=0;" edge="1" parent="1" source="gUwf0hyolpHAvtYDquf2-8" target="gUwf0hyolpHAvtYDquf2-10">
          <mxGeometry relative="1" as="geometry">
            <mxPoint x="703" y="440" as="targetPoint" />
            <mxPoint x="751" y="344.71" as="sourcePoint" />
          </mxGeometry>
        </mxCell>
        <mxCell id="gUwf0hyolpHAvtYDquf2-14" style="edgeStyle=orthogonalEdgeStyle;rounded=0;orthogonalLoop=1;jettySize=auto;html=1;exitX=0.75;exitY=1;exitDx=0;exitDy=0;curved=1;entryX=0.25;entryY=1;entryDx=0;entryDy=0;endArrow=open;endFill=0;" edge="1" parent="1" source="gUwf0hyolpHAvtYDquf2-10" target="gUwf0hyolpHAvtYDquf2-10">
          <mxGeometry relative="1" as="geometry">
            <mxPoint x="868" y="569.6190359933036" as="targetPoint" />
            <Array as="points">
              <mxPoint x="868" y="545" />
              <mxPoint x="808" y="545" />
            </Array>
          </mxGeometry>
        </mxCell>
        <mxCell id="gUwf0hyolpHAvtYDquf2-15" style="edgeStyle=orthogonalEdgeStyle;rounded=0;orthogonalLoop=1;jettySize=auto;html=1;exitX=1;exitY=0.5;exitDx=0;exitDy=0;endArrow=open;endFill=0;entryX=0;entryY=0.5;entryDx=0;entryDy=0;" edge="1" parent="1" source="gUwf0hyolpHAvtYDquf2-10" target="gUwf0hyolpHAvtYDquf2-16">
          <mxGeometry relative="1" as="geometry">
            <mxPoint x="993.3333565848214" y="484.8571428571429" as="targetPoint" />
          </mxGeometry>
        </mxCell>
        <mxCell id="gUwf0hyolpHAvtYDquf2-10" value="Процесс сохранения" style="rounded=1;whiteSpace=wrap;html=1;" vertex="1" parent="1">
          <mxGeometry x="778" y="455" width="120" height="60" as="geometry" />
        </mxCell>
        <mxCell id="gUwf0hyolpHAvtYDquf2-11" value="Нажатие на кнопку «сохранить»&amp;nbsp;" style="text;align=center;verticalAlign=middle;rounded=0;glass=0;shadow=0;whiteSpace=wrap;fontColor=default;html=1;spacingTop=9;spacing=6;" vertex="1" parent="1">
          <mxGeometry x="774" y="377" width="143" height="37" as="geometry" />
        </mxCell>
        <mxCell id="gUwf0hyolpHAvtYDquf2-13" value="[Изменения не сохранены]" style="text;align=center;verticalAlign=middle;rounded=0;glass=0;shadow=0;whiteSpace=wrap;fontColor=default;html=1;spacingTop=9;spacing=6;" vertex="1" parent="1">
          <mxGeometry x="769" y="537" width="143" height="37" as="geometry" />
        </mxCell>
        <mxCell id="gUwf0hyolpHAvtYDquf2-18" style="edgeStyle=orthogonalEdgeStyle;rounded=0;orthogonalLoop=1;jettySize=auto;html=1;exitX=1;exitY=0.5;exitDx=0;exitDy=0;endArrow=open;endFill=0;" edge="1" parent="1" source="gUwf0hyolpHAvtYDquf2-16">
          <mxGeometry relative="1" as="geometry">
            <mxPoint x="1250" y="485" as="targetPoint" />
          </mxGeometry>
        </mxCell>
        <mxCell id="gUwf0hyolpHAvtYDquf2-16" value="Блок отредактирован" style="rounded=1;whiteSpace=wrap;html=1;" vertex="1" parent="1">
          <mxGeometry x="1027" y="455" width="120" height="60" as="geometry" />
        </mxCell>
        <mxCell id="gUwf0hyolpHAvtYDquf2-17" value="[Изменения сохранены]" style="text;align=center;verticalAlign=middle;rounded=0;glass=0;shadow=0;whiteSpace=wrap;fontColor=default;html=1;spacingTop=9;spacing=6;" vertex="1" parent="1">
          <mxGeometry x="907" y="446" width="120" height="37" as="geometry" />
        </mxCell>
        <mxCell id="gUwf0hyolpHAvtYDquf2-19" value="" style="ellipse;whiteSpace=wrap;html=1;fillColor=none;" vertex="1" parent="1">
          <mxGeometry x="1249" y="471" width="28" height="28" as="geometry" />
        </mxCell>
        <mxCell id="gUwf0hyolpHAvtYDquf2-20" value="" style="shape=waypoint;sketch=0;fillStyle=solid;size=6;pointerEvents=1;points=[];fillColor=none;resizable=0;rotatable=0;perimeter=centerPerimeter;snapToPoint=1;strokeWidth=8;" vertex="1" parent="1">
          <mxGeometry x="1253" y="475" width="20" height="20" as="geometry" />
        </mxCell>
      </root>
    </mxGraphModel>
  </diagram>
</mxfile>
